<?xml version="1.0" encoding="UTF-8" standalone="no"?>
<!-- Created with Inkscape (http://www.inkscape.org/) -->

<svg
   xmlns:dc="http://purl.org/dc/elements/1.1/"
   xmlns:cc="http://creativecommons.org/ns#"
   xmlns:rdf="http://www.w3.org/1999/02/22-rdf-syntax-ns#"
   xmlns:svg="http://www.w3.org/2000/svg"
   xmlns="http://www.w3.org/2000/svg"
   xmlns:sodipodi="http://sodipodi.sourceforge.net/DTD/sodipodi-0.dtd"
   xmlns:inkscape="http://www.inkscape.org/namespaces/inkscape"
   width="716"
   height="690"
   viewBox="0 0 189.44155 182.56274"
   version="1.1"
   id="svg5081"
   inkscape:version="0.92.0 r15299"
   sodipodi:docname="plot.svg">
  <defs
     id="defs5075" />
  <sodipodi:namedview
     id="base"
     pagecolor="#ffffff"
     bordercolor="#666666"
     borderopacity="1.0"
     inkscape:pageopacity="0.0"
     inkscape:pageshadow="2"
     inkscape:zoom="0.53974135"
     inkscape:cx="-412.41558"
     inkscape:cy="708.70881"
     inkscape:document-units="mm"
     inkscape:current-layer="layer1"
     showgrid="false"
     units="px"
     inkscape:window-width="1920"
     inkscape:window-height="1018"
     inkscape:window-x="-8"
     inkscape:window-y="-8"
     inkscape:window-maximized="1"
     inkscape:pagecheckerboard="true"
     showguides="false" />
  <metadata
     id="metadata5078">
    <rdf:RDF>
      <cc:Work
         rdf:about="">
        <dc:format>image/svg+xml</dc:format>
        <dc:type
           rdf:resource="http://purl.org/dc/dcmitype/StillImage" />
        <dc:title></dc:title>
      </cc:Work>
    </rdf:RDF>
  </metadata>
  <g
     inkscape:label="Calque 1"
     inkscape:groupmode="layer"
     id="layer1"
     transform="translate(0,-114.43729)">
    <path
       id="path4"
       transform="matrix(0.26458368,0,0,0.26458368,-1.8285507e-4,114.43729)"
       style="fill:#449d44;fill-opacity:1;stroke-width:7.8704567"
       d="m 404.85938,159.03711 c 0.15306,0.25841 0.3292,0.50757 0.48828,0.76367 -0.0418,-0.13809 -0.0741,-0.27149 -0.0977,-0.40234 -0.13333,-0.12069 -0.25332,-0.24008 -0.39062,-0.36133 z m 13.11132,14.40234 c 0.0583,0.24156 0.11313,0.48416 0.17578,0.72461 0.26682,-1.8e-4 0.53376,-0.006 0.80079,-0.01 -0.3269,-0.23668 -0.65555,-0.47181 -0.97657,-0.71485 z m 51.94141,6.08008 c -2.17066,-0.034 -4.31817,0.24255 -6.44336,0.67383 -2.5745,0.36586 -5.15481,0.67885 -7.75977,0.5 -0.10885,-0.0151 -0.2177,-0.0233 -0.32617,-0.041 -0.0427,-0.008 -0.099,0.005 -0.12695,-0.0254 -0.0227,-0.0264 0.0954,-0.0984 0.0625,-0.0859 -0.1149,0.0427 -0.22009,0.10808 -0.33008,0.1621 -0.3496,0.10923 -0.69926,0.21695 -1.04883,0.32618 -0.7138,-4.9e-4 -1.42811,0.0578 -2.14062,-0.004 -0.14512,-0.0161 -0.14071,-0.0186 -0.23242,-0.0293 -0.85891,1.46578 -1.47523,1.62707 -2.79102,0.36524 -0.13151,-2.8e-4 -0.26302,3.9e-4 -0.39453,0 -0.67529,0.002 -1.35037,0.0226 -2.02539,-0.008 -0.8036,-0.0378 -1.57575,0.10207 -2.38086,0.0703 -0.35651,-0.20628 -0.72222,-0.39702 -1.07031,-0.61719 -0.002,-0.002 -0.0104,-0.006 -0.0117,-0.008 -0.004,-0.005 -0.008,-0.008 -0.008,-0.0117 -0.007,-0.005 -0.006,-0.008 -0.0137,-0.0156 -0.23359,-0.0173 -0.44,-0.0313 -1.00586,-0.0879 -0.14765,-0.0797 -0.29543,-0.16093 -0.44335,-0.24023 -0.44944,-0.0473 -0.7121,-0.0903 -0.9961,-0.14258 -0.48937,0.23761 0.32123,0.10794 -1.45117,0.38867 -0.0945,0.0151 -0.19067,-0.0266 -0.28516,-0.041 -0.45278,-0.21392 -1.52201,0.58484 -2.11914,0.38672 -0.71489,0 -1.42963,2.6e-4 -2.14453,0 -0.78308,-4.2e-4 -1.56653,-4.8e-4 -2.34961,0.002 -0.86063,-4e-5 -1.72155,-0.0157 -2.58203,-0.004 -0.64059,0.0266 -1.14311,0.0449 -1.69922,-0.0469 l -28.85351,119.65625 c -4.49624,0.92727 -7.8031,2.15928 -11.93555,3.70117 -14.0509,5.23955 -24.26501,13.54632 -30.91016,22.76953 l -87.71093,-3.26562 c -1.09114,-1.84112 -0.99085,-3.37902 -2.08204,-5.22071 -14.91055,-25.16742 -54.18695,-35.25214 -88.07421,-22.61523 -33.88737,12.63653 -49.16255,43.065 -34.25196,68.23242 4.72774,7.97993 12.39789,14.11245 21.35742,19.01563 l -39.96875,131.82031 c -5.32287,1.23454 -9.82013,2.16052 -14.77929,4.00976 -33.88735,12.63688 -49.160661,43.06474 -34.250002,68.23243 14.910552,25.16742 54.186912,35.25405 88.074222,22.61718 33.88732,-12.63657 49.16059,-43.06499 34.25,-68.23242 -4.72774,-7.97993 -12.39793,-14.11241 -21.35743,-19.01562 l 40.4336,-132.74219 c 5.32287,-1.23458 9.81817,-2.16255 14.77734,-4.01172 14.05083,-5.23955 24.26695,-13.54636 30.91211,-22.76953 l 87.71094,3.26758 c 1.09088,1.84112 0.99116,3.37706 2.08203,5.21875 14.91048,25.16742 54.18691,35.25406 88.07422,22.61718 33.88731,-12.63656 49.16059,-43.06499 34.25,-68.23242 -5.09124,-8.59372 -13.48739,-15.95406 -23.27344,-20.54883 l 28.92188,-119.9375 c -0.0532,-0.57905 -0.10211,-1.15704 -0.12891,-1.72461 -0.95546,-1.49166 -1.865,-2.85132 -2.74414,-4.10546 -0.23695,0 -0.47386,-9e-5 -0.71094,0 -0.79151,1.9e-4 -1.58349,3e-5 -2.375,0 -0.62865,0.002 -1.25818,0.0113 -1.88672,-0.008 -0.41998,-0.008 -0.8379,-0.003 -1.25781,0.0117 -0.10016,0.003 -0.27848,0.10743 -0.30078,0.01 -0.002,-0.008 -0.002,-0.0135 -0.004,-0.0215 -0.41075,0.0659 -0.69257,0.078 -0.77148,-0.12695 -0.36583,-0.0333 -0.73241,-0.0628 -1.09961,-0.0684 z m -29.33984,0.70703 c -0.072,0.0285 -0.0653,0.0346 -0.11329,0.0566 0.0354,0.003 0.0699,0.0124 0.10547,0.0137 0.10621,0.004 0.0227,-0.0767 0.008,-0.0703 z m -12.74805,0.71485 c -0.007,9e-4 -0.013,0.003 -0.0195,0.004 v 0.006 c 0.006,-0.004 0.0149,-0.005 0.0195,-0.01 z" />
    <path
       class="st0"
       d="M 180.10307,280.54877 H 20.704071 V 173.86211 c 0,-3.78564 -3.673734,-6.88297 -8.163845,-6.88297 -4.4901087,0 -8.1638431,3.09733 -8.1638431,6.88297 v 113.56971 c 0,3.78564 3.6737344,6.88298 8.1638431,6.88298 H 180.10307 c 4.49011,0 8.16384,-3.09734 8.16384,-6.88298 0,-3.78571 -3.67373,-6.88305 -8.16384,-6.88305 z"
       id="path6"
       inkscape:connector-curvature="0"
       style="fill:#449d44;fill-opacity:1;stroke-width:1.87402976" />
    <text
       xml:space="preserve"
       style="font-style:normal;font-weight:normal;font-size:111.06139374px;line-height:69.41337585px;font-family:sans-serif;letter-spacing:0px;word-spacing:0px;fill:#449d44;fill-opacity:1;stroke:none;stroke-width:2.77653527"
       x="4.7584701"
       y="161.68224"
       id="text3696"
       transform="scale(0.97927338,1.0211653)"><tspan
         sodipodi:role="line"
         id="tspan3694"
         x="4.7584701"
         y="161.68224"
         style="font-style:normal;font-variant:normal;font-weight:bold;font-stretch:normal;font-size:59.22950745px;font-family:sans-serif;-inkscape-font-specification:'sans-serif Bold';fill:#449d44;fill-opacity:1;stroke-width:2.77653527">JPlOt</tspan></text>
  </g>
</svg>
